<mxfile host="app.diagrams.net" modified="2022-10-05T09:31:08.777Z" agent="5.0 (Windows NT 10.0; Win64; x64) AppleWebKit/537.36 (KHTML, like Gecko) Chrome/105.0.0.0 Safari/537.36" etag="y1fLW3J8Wt1jAhFRcKTb" version="20.4.0" type="github">
  <diagram id="nMHxCotdtPHRQ3Cds6Kl" name="Trang-1">
    <mxGraphModel dx="1422" dy="737" grid="1" gridSize="10" guides="1" tooltips="1" connect="1" arrows="1" fold="1" page="1" pageScale="1" pageWidth="827" pageHeight="1169" math="0" shadow="0">
      <root>
        <mxCell id="0" />
        <mxCell id="1" parent="0" />
        <mxCell id="TbgFc-e-V5gIpO4-0xdd-13" value="" style="rounded=0;whiteSpace=wrap;html=1;fontSize=13;" vertex="1" parent="1">
          <mxGeometry x="163.75" y="70" width="556.25" height="850" as="geometry" />
        </mxCell>
        <mxCell id="TbgFc-e-V5gIpO4-0xdd-1" value="job seeker" style="shape=umlActor;verticalLabelPosition=bottom;verticalAlign=top;html=1;" vertex="1" parent="1">
          <mxGeometry x="30" y="260" width="30" height="60" as="geometry" />
        </mxCell>
        <mxCell id="TbgFc-e-V5gIpO4-0xdd-4" value="" style="endArrow=classic;html=1;rounded=0;" edge="1" parent="1" target="TbgFc-e-V5gIpO4-0xdd-5">
          <mxGeometry width="50" height="50" relative="1" as="geometry">
            <mxPoint x="70" y="300" as="sourcePoint" />
            <mxPoint x="200" y="170" as="targetPoint" />
          </mxGeometry>
        </mxCell>
        <mxCell id="TbgFc-e-V5gIpO4-0xdd-5" value="&lt;p style=&quot;line-height: 1;&quot;&gt;&lt;span style=&quot;color: rgb(32, 33, 36); font-family: arial, sans-serif; text-align: left;&quot;&gt;&lt;font style=&quot;font-size: 13px;&quot;&gt;register&lt;/font&gt;&lt;/span&gt;&lt;/p&gt;" style="ellipse;whiteSpace=wrap;html=1;" vertex="1" parent="1">
          <mxGeometry x="205" y="80" width="100" height="40" as="geometry" />
        </mxCell>
        <mxCell id="TbgFc-e-V5gIpO4-0xdd-6" value="" style="endArrow=classic;html=1;rounded=0;fontSize=17;" edge="1" parent="1" target="TbgFc-e-V5gIpO4-0xdd-7">
          <mxGeometry width="50" height="50" relative="1" as="geometry">
            <mxPoint x="70" y="300" as="sourcePoint" />
            <mxPoint x="210" y="270" as="targetPoint" />
          </mxGeometry>
        </mxCell>
        <mxCell id="TbgFc-e-V5gIpO4-0xdd-7" value="&lt;font style=&quot;font-size: 13px;&quot;&gt;login&lt;/font&gt;" style="ellipse;whiteSpace=wrap;html=1;fontSize=17;" vertex="1" parent="1">
          <mxGeometry x="208.75" y="150" width="90" height="40" as="geometry" />
        </mxCell>
        <mxCell id="TbgFc-e-V5gIpO4-0xdd-9" value="" style="endArrow=classic;html=1;rounded=0;fontSize=17;" edge="1" parent="1" target="TbgFc-e-V5gIpO4-0xdd-10">
          <mxGeometry width="50" height="50" relative="1" as="geometry">
            <mxPoint x="70" y="300" as="sourcePoint" />
            <mxPoint x="210" y="380" as="targetPoint" />
          </mxGeometry>
        </mxCell>
        <mxCell id="TbgFc-e-V5gIpO4-0xdd-10" value="&lt;font style=&quot;font-size: 13px;&quot;&gt;upload cv&lt;/font&gt;" style="ellipse;whiteSpace=wrap;html=1;fontSize=17;" vertex="1" parent="1">
          <mxGeometry x="220" y="310" width="90" height="50" as="geometry" />
        </mxCell>
        <mxCell id="TbgFc-e-V5gIpO4-0xdd-11" value="" style="endArrow=classic;html=1;rounded=0;fontSize=13;" edge="1" parent="1" target="TbgFc-e-V5gIpO4-0xdd-12">
          <mxGeometry width="50" height="50" relative="1" as="geometry">
            <mxPoint x="70" y="300" as="sourcePoint" />
            <mxPoint x="210" y="480" as="targetPoint" />
          </mxGeometry>
        </mxCell>
        <mxCell id="TbgFc-e-V5gIpO4-0xdd-12" value="search job" style="ellipse;whiteSpace=wrap;html=1;fontSize=13;" vertex="1" parent="1">
          <mxGeometry x="210" y="390" width="100" height="50" as="geometry" />
        </mxCell>
        <mxCell id="TbgFc-e-V5gIpO4-0xdd-18" value="" style="endArrow=classic;html=1;rounded=0;fontSize=13;" edge="1" parent="1" target="TbgFc-e-V5gIpO4-0xdd-19">
          <mxGeometry width="50" height="50" relative="1" as="geometry">
            <mxPoint x="70" y="300" as="sourcePoint" />
            <mxPoint x="130" y="530" as="targetPoint" />
          </mxGeometry>
        </mxCell>
        <mxCell id="TbgFc-e-V5gIpO4-0xdd-19" value="update user/ change password" style="ellipse;whiteSpace=wrap;html=1;fontSize=13;" vertex="1" parent="1">
          <mxGeometry x="197.5" y="220" width="112.5" height="60" as="geometry" />
        </mxCell>
        <mxCell id="TbgFc-e-V5gIpO4-0xdd-20" value="" style="endArrow=classic;html=1;rounded=0;fontSize=13;" edge="1" parent="1" target="TbgFc-e-V5gIpO4-0xdd-21">
          <mxGeometry width="50" height="50" relative="1" as="geometry">
            <mxPoint x="70" y="300" as="sourcePoint" />
            <mxPoint x="110" y="500" as="targetPoint" />
          </mxGeometry>
        </mxCell>
        <mxCell id="TbgFc-e-V5gIpO4-0xdd-21" value="&lt;span style=&quot;color: rgb(32, 33, 36); font-family: arial, sans-serif; text-align: left;&quot;&gt;&lt;font style=&quot;font-size: 13px;&quot;&gt;complete cv&lt;/font&gt;&lt;/span&gt;" style="ellipse;whiteSpace=wrap;html=1;fontSize=13;" vertex="1" parent="1">
          <mxGeometry x="218.75" y="480" width="100" height="40" as="geometry" />
        </mxCell>
        <mxCell id="TbgFc-e-V5gIpO4-0xdd-22" value="" style="endArrow=classic;html=1;rounded=0;fontSize=13;" edge="1" parent="1" target="TbgFc-e-V5gIpO4-0xdd-23">
          <mxGeometry width="50" height="50" relative="1" as="geometry">
            <mxPoint x="70" y="300" as="sourcePoint" />
            <mxPoint x="110" y="550" as="targetPoint" />
          </mxGeometry>
        </mxCell>
        <mxCell id="TbgFc-e-V5gIpO4-0xdd-26" value="" style="edgeStyle=orthogonalEdgeStyle;rounded=0;orthogonalLoop=1;jettySize=auto;html=1;fontSize=13;" edge="1" parent="1" source="TbgFc-e-V5gIpO4-0xdd-23" target="TbgFc-e-V5gIpO4-0xdd-25">
          <mxGeometry relative="1" as="geometry" />
        </mxCell>
        <mxCell id="TbgFc-e-V5gIpO4-0xdd-23" value="view employer" style="ellipse;whiteSpace=wrap;html=1;fontSize=13;" vertex="1" parent="1">
          <mxGeometry x="208.75" y="580" width="111.25" height="50" as="geometry" />
        </mxCell>
        <mxCell id="TbgFc-e-V5gIpO4-0xdd-25" value="chat/ request&amp;nbsp;" style="ellipse;whiteSpace=wrap;html=1;fontSize=13;" vertex="1" parent="1">
          <mxGeometry x="440" y="550" width="120" height="70" as="geometry" />
        </mxCell>
        <mxCell id="TbgFc-e-V5gIpO4-0xdd-29" value="" style="endArrow=classic;html=1;rounded=0;fontSize=13;" edge="1" parent="1" target="TbgFc-e-V5gIpO4-0xdd-30">
          <mxGeometry width="50" height="50" relative="1" as="geometry">
            <mxPoint x="70" y="300" as="sourcePoint" />
            <mxPoint x="70" y="440" as="targetPoint" />
          </mxGeometry>
        </mxCell>
        <mxCell id="TbgFc-e-V5gIpO4-0xdd-30" value="receive email from employer" style="ellipse;whiteSpace=wrap;html=1;fontSize=13;" vertex="1" parent="1">
          <mxGeometry x="195" y="770" width="120" height="60" as="geometry" />
        </mxCell>
        <mxCell id="TbgFc-e-V5gIpO4-0xdd-31" value="employer" style="shape=umlActor;verticalLabelPosition=bottom;verticalAlign=top;html=1;outlineConnect=0;fontSize=13;" vertex="1" parent="1">
          <mxGeometry x="740" y="260" width="30" height="60" as="geometry" />
        </mxCell>
        <mxCell id="TbgFc-e-V5gIpO4-0xdd-39" value="" style="endArrow=classic;html=1;rounded=0;fontSize=13;entryX=1;entryY=0.5;entryDx=0;entryDy=0;" edge="1" parent="1" target="TbgFc-e-V5gIpO4-0xdd-5">
          <mxGeometry width="50" height="50" relative="1" as="geometry">
            <mxPoint x="730" y="300" as="sourcePoint" />
            <mxPoint x="780" y="250" as="targetPoint" />
          </mxGeometry>
        </mxCell>
        <mxCell id="TbgFc-e-V5gIpO4-0xdd-40" value="" style="endArrow=classic;html=1;rounded=0;fontSize=13;entryX=1;entryY=0.5;entryDx=0;entryDy=0;" edge="1" parent="1">
          <mxGeometry width="50" height="50" relative="1" as="geometry">
            <mxPoint x="730" y="300" as="sourcePoint" />
            <mxPoint x="298.75" y="170" as="targetPoint" />
          </mxGeometry>
        </mxCell>
        <mxCell id="TbgFc-e-V5gIpO4-0xdd-41" value="" style="endArrow=classic;html=1;rounded=0;fontSize=13;entryX=1;entryY=0.5;entryDx=0;entryDy=0;" edge="1" parent="1" target="TbgFc-e-V5gIpO4-0xdd-19">
          <mxGeometry width="50" height="50" relative="1" as="geometry">
            <mxPoint x="730" y="300" as="sourcePoint" />
            <mxPoint x="305" y="100" as="targetPoint" />
          </mxGeometry>
        </mxCell>
        <mxCell id="TbgFc-e-V5gIpO4-0xdd-45" style="edgeStyle=orthogonalEdgeStyle;rounded=0;orthogonalLoop=1;jettySize=auto;html=1;fontSize=13;entryX=1;entryY=0;entryDx=0;entryDy=0;" edge="1" parent="1" source="TbgFc-e-V5gIpO4-0xdd-42" target="TbgFc-e-V5gIpO4-0xdd-23">
          <mxGeometry relative="1" as="geometry">
            <mxPoint x="310" y="580" as="targetPoint" />
            <Array as="points">
              <mxPoint x="530" y="430" />
              <mxPoint x="340" y="430" />
              <mxPoint x="340" y="570" />
              <mxPoint x="310" y="570" />
              <mxPoint x="310" y="587" />
            </Array>
          </mxGeometry>
        </mxCell>
        <mxCell id="TbgFc-e-V5gIpO4-0xdd-42" value="&lt;font style=&quot;font-size: 13px;&quot;&gt;upload&amp;nbsp;&lt;br&gt;&lt;span style=&quot;color: rgb(32, 33, 36); font-family: arial, sans-serif; text-align: left;&quot;&gt;recruitment post&lt;/span&gt;&lt;/font&gt;" style="ellipse;whiteSpace=wrap;html=1;fontSize=13;" vertex="1" parent="1">
          <mxGeometry x="470" y="340" width="120" height="50" as="geometry" />
        </mxCell>
        <mxCell id="TbgFc-e-V5gIpO4-0xdd-43" value="" style="endArrow=classic;html=1;rounded=0;fontSize=13;entryX=0.967;entryY=0.36;entryDx=0;entryDy=0;entryPerimeter=0;" edge="1" parent="1" target="TbgFc-e-V5gIpO4-0xdd-42">
          <mxGeometry width="50" height="50" relative="1" as="geometry">
            <mxPoint x="730" y="300" as="sourcePoint" />
            <mxPoint x="440" y="370" as="targetPoint" />
          </mxGeometry>
        </mxCell>
        <mxCell id="TbgFc-e-V5gIpO4-0xdd-46" value="" style="endArrow=classic;html=1;rounded=0;fontSize=13;entryX=1;entryY=0.5;entryDx=0;entryDy=0;" edge="1" parent="1" target="TbgFc-e-V5gIpO4-0xdd-25">
          <mxGeometry width="50" height="50" relative="1" as="geometry">
            <mxPoint x="730" y="300" as="sourcePoint" />
            <mxPoint x="780" y="250" as="targetPoint" />
          </mxGeometry>
        </mxCell>
        <mxCell id="TbgFc-e-V5gIpO4-0xdd-47" value="send email to job seeker" style="ellipse;whiteSpace=wrap;html=1;fontSize=13;" vertex="1" parent="1">
          <mxGeometry x="470" y="780" width="120" height="60" as="geometry" />
        </mxCell>
        <mxCell id="TbgFc-e-V5gIpO4-0xdd-48" value="" style="endArrow=classic;html=1;rounded=0;fontSize=13;entryX=1;entryY=0.5;entryDx=0;entryDy=0;" edge="1" parent="1" target="TbgFc-e-V5gIpO4-0xdd-47">
          <mxGeometry width="50" height="50" relative="1" as="geometry">
            <mxPoint x="730" y="300" as="sourcePoint" />
            <mxPoint x="780" y="250" as="targetPoint" />
          </mxGeometry>
        </mxCell>
        <mxCell id="TbgFc-e-V5gIpO4-0xdd-49" value="" style="endArrow=classic;html=1;rounded=0;fontSize=13;entryX=1;entryY=0.5;entryDx=0;entryDy=0;exitX=0.025;exitY=0.65;exitDx=0;exitDy=0;exitPerimeter=0;" edge="1" parent="1" source="TbgFc-e-V5gIpO4-0xdd-47" target="TbgFc-e-V5gIpO4-0xdd-30">
          <mxGeometry width="50" height="50" relative="1" as="geometry">
            <mxPoint x="450" y="730" as="sourcePoint" />
            <mxPoint x="500" y="680" as="targetPoint" />
          </mxGeometry>
        </mxCell>
        <mxCell id="TbgFc-e-V5gIpO4-0xdd-50" value="receive email&amp;nbsp;application" style="ellipse;whiteSpace=wrap;html=1;fontSize=13;" vertex="1" parent="1">
          <mxGeometry x="480" y="665" width="120" height="60" as="geometry" />
        </mxCell>
        <mxCell id="TbgFc-e-V5gIpO4-0xdd-52" value="submit cv" style="ellipse;whiteSpace=wrap;html=1;fontSize=13;" vertex="1" parent="1">
          <mxGeometry x="320" y="670" width="120" height="50" as="geometry" />
        </mxCell>
        <mxCell id="TbgFc-e-V5gIpO4-0xdd-53" value="" style="endArrow=classic;html=1;rounded=0;fontSize=13;" edge="1" parent="1" target="TbgFc-e-V5gIpO4-0xdd-52">
          <mxGeometry width="50" height="50" relative="1" as="geometry">
            <mxPoint x="270" y="630" as="sourcePoint" />
            <mxPoint x="320" y="580" as="targetPoint" />
          </mxGeometry>
        </mxCell>
        <mxCell id="TbgFc-e-V5gIpO4-0xdd-54" value="" style="endArrow=classic;html=1;rounded=0;fontSize=13;entryX=0;entryY=0.5;entryDx=0;entryDy=0;" edge="1" parent="1" target="TbgFc-e-V5gIpO4-0xdd-50">
          <mxGeometry width="50" height="50" relative="1" as="geometry">
            <mxPoint x="440" y="700" as="sourcePoint" />
            <mxPoint x="490" y="650" as="targetPoint" />
          </mxGeometry>
        </mxCell>
        <mxCell id="TbgFc-e-V5gIpO4-0xdd-55" value="" style="endArrow=classic;html=1;rounded=0;fontSize=13;entryX=0.917;entryY=0.167;entryDx=0;entryDy=0;entryPerimeter=0;" edge="1" parent="1" target="TbgFc-e-V5gIpO4-0xdd-50">
          <mxGeometry width="50" height="50" relative="1" as="geometry">
            <mxPoint x="730" y="300" as="sourcePoint" />
            <mxPoint x="780" y="250" as="targetPoint" />
          </mxGeometry>
        </mxCell>
      </root>
    </mxGraphModel>
  </diagram>
</mxfile>
